mtllib UpgradeBox_Cardboard.mtl
usemtl UpgradeBox_BaseColor
g bg_prop_box_a
v -0.296717495 1.39834938E-07 -0.409145266
v -0.296717495 3.44287727E-08 0.409145385
v -0 -0.0127302986 0.409145266
v -0 -0.0127301943 -0.409145266
v 0.296717227 2.09472489E-07 -0.409145385
v 0.296717405 -3.5208771E-08 0.409145266
v -0 0.513011277 0.409145415
v -0.296717495 0.502490163 0.409145415
v -0.296717495 0.502490282 -0.409145206
v -0 0.513011336 -0.409145236
v 0.296717227 0.502490163 0.409145415
v 0.296717227 0.502490222 -0.409145236
v -0 -0.0127302986 0.409145266
v -0.296717495 3.44287727E-08 0.409145385
v -0.296717495 0.502490163 0.409145415
v -0 0.513011277 0.409145415
v 0.296717405 -3.5208771E-08 0.409145266
v 0.296717227 0.502490163 0.409145415
v 0.296717405 -3.5208771E-08 0.409145266
v 0.296717227 0.502490163 0.409145415
v 0.296717227 0.502490222 -0.409145236
v 0.296717227 2.09472489E-07 -0.409145385
v -0 -0.0127301943 -0.409145266
v 0.296717227 2.09472489E-07 -0.409145385
v 0.296717227 0.502490222 -0.409145236
v -0 0.513011336 -0.409145236
v -0.296717495 1.39834938E-07 -0.409145266
v -0.296717495 0.502490282 -0.409145206
v -0.296717495 1.39834938E-07 -0.409145266
v -0.296717495 0.502490282 -0.409145206
v -0.296717495 0.502490163 0.409145415
v -0.296717495 3.44287727E-08 0.409145385
vt 0.070702441 0.82125783
vt 0.070702441 0.958059609
vt 0.120307617 0.958059609
vt 0.120307617 0.82125783
vt 0.1699128 0.82125783
vt 0.1699128 0.958059609
vt 0.217885017 0.588418901
vt 0.217885017 0.538820922
vt 0.0811031759 0.538820922
vt 0.0811031759 0.588418901
vt 0.217885017 0.63801682
vt 0.0811031759 0.63801682
vt 0.922441602 0.507162988
vt 0.87285924 0.509290278
vt 0.87285924 0.593257904
vt 0.922441602 0.595016003
vt 0.972024024 0.509290278
vt 0.972024024 0.593257904
vt 0.867658913 0.906587005
vt 0.867658913 0.990554631
vt 1.00439775 0.990554631
vt 1.00439775 0.906587005
vt 0.87285924 0.45358789
vt 0.874986589 0.503170192
vt 0.958954155 0.503170192
vt 0.960712254 0.45358789
vt 0.874986589 0.404005408
vt 0.958954215 0.404005408
vt 0.72594887 0.907302201
vt 0.72594887 0.991269827
vt 0.862687707 0.991269827
vt 0.862687707 0.907302201
vn -0.042864453 -0.999080896 -1.28321005E-07
vn -0.0428644568 -0.999080896 -1.2832102E-07
vn -0 -1 -1.73216023E-07
vn -0 -1 -1.73216037E-07
vn 0.0428644754 -0.999080896 -2.17792675E-07
vn 0.0428644754 -0.999080896 -2.17792675E-07
vn -0 1 0
vn -0.0354359932 0.999371946 0
vn -0.0354359969 0.999371946 0
vn -0 1 0
vn 0.0354361571 0.999371946 0
vn 0.0354361571 0.999371946 0
vn -0 -2.41147319E-07 1
vn 1.92154346E-07 -1.85497953E-07 1
vn 1.92154346E-07 -1.85497953E-07 1
vn -0 -2.41147319E-07 1
vn -0 -2.96796713E-07 1
vn -0 -2.96796713E-07 1
vn 1 1.7081075E-07 -1.04890184E-07
vn 1 1.7081075E-07 -1.04890184E-07
vn 1 1.70810736E-07 -1.04890198E-07
vn 1 1.7081075E-07 -1.04890184E-07
vn -1.28701473E-07 1.48398371E-07 -1
vn -1.93535641E-07 1.85497981E-07 -1
vn -1.93535655E-07 1.85497981E-07 -1
vn -1.28701487E-07 1.48398371E-07 -1
vn -0 1.1129876E-07 -1
vn -0 1.1129876E-07 -1
vn -1 0 0
vn -1 0 0
vn -1 0 0
vn -1 0 0
g bg_prop_box_a_0
f 3/3/3 2/2/2 1/1/1
f 4/4/4 3/3/3 1/1/1
f 3/3/3 4/4/4 5/5/5
f 6/6/6 3/3/3 5/5/5
f 9/9/9 8/8/8 7/7/7
f 10/10/10 9/9/9 7/7/7
f 10/10/10 7/7/7 11/11/11
f 12/12/12 10/10/10 11/11/11
f 15/15/15 14/14/14 13/13/13
f 16/16/16 15/15/15 13/13/13
f 16/16/16 13/13/13 17/17/17
f 18/18/18 16/16/16 17/17/17
f 21/21/21 20/20/20 19/19/19
f 22/22/22 21/21/21 19/19/19
f 25/25/25 24/24/24 23/23/23
f 26/26/26 25/25/25 23/23/23
f 26/26/26 23/23/23 27/27/27
f 28/28/28 26/26/26 27/27/27
f 31/31/31 30/30/30 29/29/29
f 32/32/32 31/31/31 29/29/29
